<svg xmlns="http://www.w3.org/2000/svg" viewBox="0 0 36.56 50"><defs><style>.cls-1{fill:#fff;}.cls-2{fill:#e3c235;}.cls-3{fill:#1c8642;}.cls-4{fill:#e7d327;}</style></defs><g id="Capa_20" data-name="Capa 20"><path class="cls-1" d="M8.25,38.8H7.93v2H7V35.94l.65,0h.69a2.1,2.1,0,0,1,1.28.32,1.18,1.18,0,0,1,.43,1,1.73,1.73,0,0,1-.07.54,1.36,1.36,0,0,1-.2.4,1.24,1.24,0,0,1-.28.28,1.81,1.81,0,0,1-.33.2l.39.71a6.52,6.52,0,0,0,.38.58,2.1,2.1,0,0,0,.38.4.73.73,0,0,0,.42.14h0v.31a1.38,1.38,0,0,1-.26.07l-.32,0a2,2,0,0,1-.46,0,.82.82,0,0,1-.37-.21A2.11,2.11,0,0,1,9,40.15c-.13-.21-.28-.48-.46-.83Zm-.15-.48a1.52,1.52,0,0,0,.38,0,1,1,0,0,0,.29-.12l.11-.1A.54.54,0,0,0,9,37.9.82.82,0,0,0,9,37.65a1.9,1.9,0,0,0,0-.37A1.29,1.29,0,0,0,9,36.86a.61.61,0,0,0-.16-.27.69.69,0,0,0-.28-.15,1.4,1.4,0,0,0-.38,0H7.93v1.91Z" transform="translate(-6.72)"/><polygon class="cls-1" points="8.4 40.82 5.61 40.82 5.61 35.93 8.3 35.93 8.26 36.43 6.55 36.45 6.55 38.04 8.15 38.06 8.11 38.51 6.55 38.55 6.55 40.3 8.44 40.33 8.4 40.82"/><polygon class="cls-1" points="15.09 40.82 14.71 37.09 13.04 40.82 12.75 40.82 11 37.09 10.68 40.82 10.14 40.82 10.61 35.9 11.49 35.9 13.12 39.36 14.67 35.9 15.53 35.9 16.05 40.82 15.09 40.82"/><polygon class="cls-1" points="20.86 40.82 18.07 40.82 18.07 35.93 20.76 35.93 20.72 36.43 19.01 36.45 19.01 38.04 20.61 38.06 20.57 38.51 19.01 38.55 19.01 40.3 20.9 40.33 20.86 40.82"/><path class="cls-1" d="M32.27,39.39a1.18,1.18,0,0,1-.13.53,1.38,1.38,0,0,1-.36.48,1.95,1.95,0,0,1-1.33.48,2.82,2.82,0,0,1-.42,0l-.35-.07-.32-.11-.31-.15.23-.73a1.63,1.63,0,0,0,.27.15l.36.15c.13,0,.26.08.4.12a2.47,2.47,0,0,0,.36,0l.31,0,.21-.07a.34.34,0,0,0,.17-.21,1.37,1.37,0,0,0,.06-.44.51.51,0,0,0-.16-.4,1.51,1.51,0,0,0-.41-.26l-.53-.21a2.81,2.81,0,0,1-.54-.29,1.45,1.45,0,0,1-.41-.44,1.33,1.33,0,0,1-.16-.71,1.14,1.14,0,0,1,.11-.45,1.42,1.42,0,0,1,.32-.43,1.84,1.84,0,0,1,.53-.33,2,2,0,0,1,.71-.12,6.08,6.08,0,0,1,.61,0l.57.08-.15.73-.29-.09-.33-.08-.32,0h-.54a.52.52,0,0,0-.21.07.35.35,0,0,0-.13.18,1,1,0,0,0,0,.31.45.45,0,0,0,.1.31.92.92,0,0,0,.25.22,2.29,2.29,0,0,0,.35.16l.41.17a3.11,3.11,0,0,1,.41.2,1.93,1.93,0,0,1,.36.28,1.5,1.5,0,0,1,.25.41,1.64,1.64,0,0,1,.09.58" transform="translate(-6.72)"/><path class="cls-1" d="M37,40.82l-.54-1.65-1.75,0-.56,1.63h-.6L35.42,36l.92-.16,1.71,5Zm-.69-2.11-.71-2.11-.72,2.11Z" transform="translate(-6.72)"/><path class="cls-1" d="M42.49,39.39a1.18,1.18,0,0,1-.13.53,1.38,1.38,0,0,1-.36.48,2,2,0,0,1-.58.35,2,2,0,0,1-.76.13,2.75,2.75,0,0,1-.41,0l-.36-.07-.32-.11-.3-.15.23-.73a1.63,1.63,0,0,0,.27.15l.36.15c.13,0,.26.08.4.12a2.47,2.47,0,0,0,.36,0l.3,0,.22-.07a.34.34,0,0,0,.17-.21,1.37,1.37,0,0,0,.06-.44.51.51,0,0,0-.16-.4,1.51,1.51,0,0,0-.41-.26l-.54-.21a2.47,2.47,0,0,1-.53-.29,1.45,1.45,0,0,1-.41-.44,1.33,1.33,0,0,1-.17-.71,1,1,0,0,1,.12-.45,1.42,1.42,0,0,1,.32-.43,1.93,1.93,0,0,1,.52-.33,2,2,0,0,1,.71-.12,6.13,6.13,0,0,1,.62,0l.57.08-.15.73-.29-.09-.33-.08-.32,0h-.54a.48.48,0,0,0-.21.07.3.3,0,0,0-.13.18,1,1,0,0,0,0,.31.45.45,0,0,0,.1.31.92.92,0,0,0,.25.22,2.29,2.29,0,0,0,.35.16l.41.17a3.11,3.11,0,0,1,.41.2,1.6,1.6,0,0,1,.35.28,1.13,1.13,0,0,1,.25.41,1.44,1.44,0,0,1,.1.58" transform="translate(-6.72)"/><path class="cls-1" d="M8.72,50a2.06,2.06,0,0,1-.93-.19,1.62,1.62,0,0,1-.62-.51,2.2,2.2,0,0,1-.34-.81,4.2,4.2,0,0,1-.11-1,2.92,2.92,0,0,1,.1-.82A2.22,2.22,0,0,1,7.11,46a1.9,1.9,0,0,1,.43-.46,2.25,2.25,0,0,1,.51-.31A2.63,2.63,0,0,1,8.59,45a3.51,3.51,0,0,1,.55,0h.35l.35,0,.32,0,.25,0-.18.69L10,45.75l-.37-.07-.39,0a2,2,0,0,0-.32,0H8.62l-.2,0-.18.07-.17.11a.86.86,0,0,0-.29.58,6.32,6.32,0,0,0-.08,1.07A2.94,2.94,0,0,0,8,49a1,1,0,0,0,.93.51,5.19,5.19,0,0,0,.77-.06,4.75,4.75,0,0,0,.72-.17v.4a3.52,3.52,0,0,1-.39.16l-.43.11L9.15,50l-.43,0" transform="translate(-6.72)"/><path class="cls-1" d="M15.46,49.93l-.54-1.65-1.75,0-.56,1.62H12l1.84-4.84.91-.17,1.72,5Zm-.69-2.11-.71-2.11-.72,2.11Z" transform="translate(-6.72)"/><polygon class="cls-1" points="16.84 49.93 16.46 46.2 14.79 49.93 14.5 49.93 12.75 46.2 12.43 49.93 11.89 49.93 12.36 45.01 13.24 45.01 14.87 48.47 16.42 45.01 17.28 45.01 17.8 49.93 16.84 49.93"/><path class="cls-1" d="M30.44,48.61a1.5,1.5,0,0,1-.1.58,1.13,1.13,0,0,1-.32.43,1.37,1.37,0,0,1-.54.27,3,3,0,0,1-.79.09h-.75l-.41,0-.34,0V45.08l.64,0h.68a3.92,3.92,0,0,1,.71.06,1.9,1.9,0,0,1,.54.21.93.93,0,0,1,.35.36,1.09,1.09,0,0,1,.12.53,1.23,1.23,0,0,1-.07.44,1.4,1.4,0,0,1-.18.32,1,1,0,0,1-.27.23,1.44,1.44,0,0,1-.32.13v0a1.71,1.71,0,0,1,.48.18,1.12,1.12,0,0,1,.32.29,1,1,0,0,1,.19.37,1.63,1.63,0,0,1,.06.45m-1.18-2.32a.71.71,0,0,0-.23-.61,1.16,1.16,0,0,0-.67-.17h-.23V47.1h.31a1.24,1.24,0,0,0,.33,0A.73.73,0,0,0,29,47s0,0,.08-.07a.36.36,0,0,0,.08-.12.83.83,0,0,0,0-.2,1.32,1.32,0,0,0,0-.3m.22,2.26a.91.91,0,0,0-.27-.72,1.14,1.14,0,0,0-.78-.24h-.3v1.87h.54l.2,0,.18,0,.13,0a.35.35,0,0,0,.1-.08.44.44,0,0,0,.1-.15.9.9,0,0,0,.07-.23,1.69,1.69,0,0,0,0-.35" transform="translate(-6.72)"/><path class="cls-1" d="M36.82,48.21a2,2,0,0,1-.13.69,1.66,1.66,0,0,1-.41.57,1.92,1.92,0,0,1-.66.39,2.76,2.76,0,0,1-.91.14,3,3,0,0,1-.77-.09,1.55,1.55,0,0,1-.59-.29,1.24,1.24,0,0,1-.38-.54,2.08,2.08,0,0,1-.14-.8V45h1v3.33a2.19,2.19,0,0,0,.06.58.74.74,0,0,0,.19.34.79.79,0,0,0,.32.15,2.72,2.72,0,0,0,.43,0,2,2,0,0,0,.52-.06,1.27,1.27,0,0,0,.35-.17.52.52,0,0,0,.19-.34,4,4,0,0,0,0-.55V45h.94Z" transform="translate(-6.72)"/><path class="cls-1" d="M40.78,47.92h-.32v2h-1V45.05l.65,0,.69,0a2.18,2.18,0,0,1,1.28.32,1.2,1.2,0,0,1,.44,1,1.69,1.69,0,0,1-.08.53,1.35,1.35,0,0,1-.19.4,1.54,1.54,0,0,1-.28.29,2.27,2.27,0,0,1-.34.19c.14.25.27.49.4.71a5.06,5.06,0,0,0,.37.59,2.39,2.39,0,0,0,.39.39.63.63,0,0,0,.41.15h0v.31A1.53,1.53,0,0,1,43,50a1.72,1.72,0,0,1-.33,0,2,2,0,0,1-.45,0,.85.85,0,0,1-.38-.21,2.2,2.2,0,0,1-.38-.47,8.07,8.07,0,0,1-.45-.83Zm-.15-.49a1.2,1.2,0,0,0,.38,0,1,1,0,0,0,.29-.12.94.94,0,0,0,.1-.1.44.44,0,0,0,.1-.15,1,1,0,0,0,.07-.24c0-.1,0-.23,0-.37a1.61,1.61,0,0,0-.05-.42.7.7,0,0,0-.17-.28.75.75,0,0,0-.28-.15,2,2,0,0,0-.37,0h-.13l-.13,0v1.9Z" transform="translate(-6.72)"/><path class="cls-2" d="M21.79,31.43h0a1.24,1.24,0,0,0-.42-1.57,16.12,16.12,0,0,1,1-27.19,1.32,1.32,0,0,0,.58-1.59A1.32,1.32,0,0,0,21.53.2a16.11,16.11,0,0,0-1.07,31.93,1.25,1.25,0,0,0,1.33-.7" transform="translate(-6.72)"/><rect class="cls-3" x="21.72" y="30.14" width="1.99" height="3.08" transform="translate(-21.67 41.74) rotate(-69.32)"/><path class="cls-4" d="M22.91,1.08S5.37,2.92,9.14,24.3a16,16,0,0,1,2-18.83s2.5-3.31,8.26-4.91c0,0,2.9-1.17,3.54.52" transform="translate(-6.72)"/><path class="cls-4" d="M20.92,3.61S2.79,14,21.62,30.21c0,0-11.77-3-10.43-15.39,0,0,1.91-11.22,9.73-11.21" transform="translate(-6.72)"/><path class="cls-3" d="M21.71.19a1.52,1.52,0,0,1,1.2.89s.18.92-.2,1.26-1-2.15-1-2.15" transform="translate(-6.72)"/><path class="cls-2" d="M27.65,31.43h0a1.24,1.24,0,0,1,.42-1.57,16.12,16.12,0,0,0-1-27.19,1.32,1.32,0,0,1-.58-1.59A1.32,1.32,0,0,1,27.91.2,16.11,16.11,0,0,1,29,32.13a1.25,1.25,0,0,1-1.33-.7" transform="translate(-6.72)"/><rect class="cls-3" x="25.19" y="30.69" width="3.08" height="1.99" transform="translate(-16.19 11.48) rotate(-20.69)"/><path class="cls-4" d="M26.53,1.08S44.07,2.92,40.3,24.3a16,16,0,0,0-2-18.83S35.83,2.16,30.07.56c0,0-2.9-1.17-3.54.52" transform="translate(-6.72)"/><path class="cls-4" d="M28.52,3.61s18.13,10.42-.7,26.6c0,0,11.77-3,10.43-15.39,0,0-1.91-11.22-9.73-11.21" transform="translate(-6.72)"/><path class="cls-3" d="M27.53,0a1.51,1.51,0,0,0-1.2.88s-.18.92.2,1.26,1-2.14,1-2.14" transform="translate(-6.72)"/><path class="cls-3" d="M28.33,18.42a3,3,0,0,1-.23,1.13,3.48,3.48,0,0,1-.66,1.06,4.51,4.51,0,0,1-1.05.87A4.7,4.7,0,0,1,25,22v1.41H24v-1.3h-.19a8.07,8.07,0,0,1-1-.07,6,6,0,0,1-.9-.18,4.75,4.75,0,0,1-.8-.28c-.25-.1-.51-.23-.76-.36l.58-1.81a6.94,6.94,0,0,0,.6.35,6.45,6.45,0,0,0,.79.36,8.63,8.63,0,0,0,.86.28,4.61,4.61,0,0,0,.85.15V16.82c-.38-.15-.77-.32-1.16-.5a4.47,4.47,0,0,1-1.05-.7A3.49,3.49,0,0,1,21,14.56,3.71,3.71,0,0,1,20.71,13a2.38,2.38,0,0,1,.22-1,3.88,3.88,0,0,1,.64-1A4.45,4.45,0,0,1,24,9.76V8.44h1V9.67h0a13,13,0,0,1,1.46.08c.44.05.89.12,1.34.21l-.35,1.81a9.92,9.92,0,0,0-1.24-.38A6.15,6.15,0,0,0,25,11.2v3.33c.38.15.77.32,1.16.5a4.65,4.65,0,0,1,1.09.71A3.43,3.43,0,0,1,28,16.81a3.82,3.82,0,0,1,.3,1.61M22.8,12.63a1.18,1.18,0,0,0,.33.89,3.09,3.09,0,0,0,.85.58V11.22a2,2,0,0,0-.75.22.76.76,0,0,0-.33.44,2.31,2.31,0,0,0-.1.75m3.43,6.12a1.22,1.22,0,0,0-.34-.91,3.52,3.52,0,0,0-.9-.6v3.29a1.67,1.67,0,0,0,.35-.07l.3-.11a1,1,0,0,0,.43-.53,2.84,2.84,0,0,0,.16-1.07" transform="translate(-6.72)"/></g></svg>