<?xml version="1.0" encoding="utf-8"?>
<!-- Generator: Adobe Illustrator 24.1.2, SVG Export Plug-In . SVG Version: 6.00 Build 0)  -->
<svg version="1.1" id="Capa_1" xmlns="http://www.w3.org/2000/svg" xmlns:xlink="http://www.w3.org/1999/xlink" x="0px" y="0px"
	 viewBox="0 0 50 50" style="enable-background:new 0 0 50 50;" xml:space="preserve">
<style type="text/css">
	.st0{fill:#E0D13E;}
	.st1{fill:#FFFFFF;}
</style>
<g>
	<circle class="st0" cx="25" cy="25" r="25"/>
	<path class="st1" d="M25.5,39.6C25.5,39.6,25.5,39.6,25.5,39.6L25.5,39.6c-2.5,0-5-0.6-7.2-1.8l-7.9,2.1l2.1-7.8
		c-1.3-2.3-2-4.8-2-7.5c0-8.2,6.7-15,15-15c4,0,7.8,1.6,10.6,4.4c2.8,2.8,4.4,6.6,4.4,10.6C40.5,32.8,33.8,39.6,25.5,39.6z"/>
	<path class="st1" d="M25.5,12.2c-6.9,0-12.4,5.6-12.4,12.4c0,2.3,0.7,4.6,1.9,6.6l0.3,0.5L14,36.3l4.7-1.2l0.5,0.3
		c1.9,1.1,4.1,1.7,6.3,1.7h0C32.4,37,38,31.5,38,24.6c0-3.3-1.3-6.4-3.6-8.8S28.9,12.2,25.5,12.2z"/>
	<path class="st0" d="M32.8,29.9c-0.3,0.9-1.8,1.7-2.5,1.8c-0.6,0.1-1.5,0.1-2.4-0.1c-0.5-0.2-1.2-0.4-2.1-0.8
		c-3.8-1.6-6.2-5.4-6.4-5.6s-1.5-2-1.5-3.9c0-1.8,1-2.7,1.3-3.1c0.3-0.4,0.7-0.5,1-0.5s0.5,0,0.7,0c0.2,0,0.5-0.1,0.8,0.6
		c0.3,0.7,1.1,2.6,1.2,2.8c0.1,0.2,0.2,0.4,0,0.7C22.8,22,22.4,22.6,22,23c-0.2,0.2-0.4,0.4-0.2,0.8c0.2,0.4,1,1.6,2.1,2.6
		c1.4,1.3,2.6,1.7,3,1.9c0.4,0.2,0.6,0.2,0.8-0.1c0.2-0.2,0.9-1.1,1.2-1.5s0.5-0.3,0.8-0.2c0.3,0.1,2.2,1,2.6,1.2
		c0.4,0.2,0.6,0.3,0.7,0.4C33.2,28.3,33.2,29.1,32.8,29.9z"/>
</g>
</svg>
